# xmcd
#
# Track frame offsets:
#	150
#	10581
#	21200
#	31966
#	41826
#	52940
#	64381
#	74666
#	86184
#	98301
#	108077
#	116976
#	130249
#	143766
#	154358
#	163974
#
# Disc length: 2405 seconds
#
# Revision: 1
# Processed by: cddbd v1.5.2PL0 Copyright (c) Steve Scherf et al.
# Submitted via: audiograbber 1.83.01
#
DISCID=dd096310
DTITLE=Johny Cash - The Man From Arkansas
DYEAR=1982
DGENRE=
TTITLE0=Frannkie's Man Jonny
TTITLE1=In The Jailhouse Now
TTITLE2=My Shoes Keep Walkin Back To You
TTITLE3=The Great Speckled Bird
TTITLE4=I Forgot You More than You 'll Ever Now
TTITLE5=Long Legged Guitar Man
TTITLE6=Kate
TTITLE7=A Thing Called Love
TTITLE8=I'm So Lonesome I Could Cry
TTITLE9=What do I Care
TTITLE10=I Want To Go Home
TTITLE11=Dont Think Twice
TTITLE12=Dont Take Your Guns To Town
TTITLE13=Blistered
TTITLE14=Reason To Belive
TTITLE15=The Streets Of Laredo
EXTD=
EXTT0=
EXTT1=
EXTT2=
EXTT3=
EXTT4=
EXTT5=
EXTT6=
EXTT7=
EXTT8=
EXTT9=
EXTT10=
EXTT11=
EXTT12=
EXTT13=
EXTT14=
EXTT15=
PLAYORDER=
